<svg width="49" height="49" viewBox="0 0 49 49" fill="none" xmlns="http://www.w3.org/2000/svg">
<path opacity="0.75" d="M7.74902 7.86804C17.1061 7.86804 24.704 15.4687 24.704 24.829C15.347 24.829 7.74902 17.2284 7.74902 7.86804ZM24.7415 24.829C24.7415 34.1894 32.3394 41.79 41.6964 41.79C41.6964 32.4297 34.0985 24.829 24.7415 24.829Z" fill="#002872"/>
<path opacity="0.75" d="M0.75 24.829C7.3748 18.2019 18.1167 18.2019 24.7415 24.829C18.1167 31.4561 7.3748 31.4561 0.75 24.829ZM24.7415 24.829C31.3663 31.4561 42.1082 31.4561 48.733 24.829C42.0708 18.2019 31.3663 18.2019 24.7415 24.829Z" fill="#0451DD"/>
<path opacity="0.75" d="M24.742 48.829C18.1172 42.2018 18.1172 31.4561 24.742 24.829C31.3668 31.4561 31.3668 42.2018 24.742 48.829ZM24.742 24.829C31.3668 18.2018 31.3668 7.45612 24.742 0.828979C18.1172 7.45612 18.1172 18.2018 24.742 24.829Z" fill="#AAC5F7"/>
<path opacity="0.75" d="M7.74902 41.79C7.74902 32.4297 15.347 24.829 24.704 24.829C24.7414 34.1894 17.1435 41.79 7.74902 41.79ZM24.7415 24.829C34.0985 24.829 41.6964 17.2284 41.6964 7.86804C32.302 7.86804 24.7415 15.4312 24.7415 24.829Z" fill="#85A4DD"/>
<path opacity="0.75" d="M7.74902 7.86804C17.1061 7.86804 24.704 15.4687 24.704 24.829C15.347 24.829 7.74902 17.2284 7.74902 7.86804ZM24.7415 24.829C24.7415 34.1894 32.3394 41.79 41.6964 41.79C41.6964 32.4297 34.0985 24.829 24.7415 24.829Z" fill="#5893FF"/>
<path opacity="0.75" d="M0.75 24.829C7.3748 18.2019 18.1167 18.2019 24.7415 24.829C18.1167 31.4561 7.3748 31.4561 0.75 24.829ZM24.7415 24.829C31.3663 31.4561 42.1082 31.4561 48.733 24.829C42.0708 18.2019 31.3663 18.2019 24.7415 24.829Z" fill="#033CA5"/>
<path opacity="0.75" d="M24.742 48.829C18.1172 42.2018 18.1172 31.4561 24.742 24.829C31.3668 31.4561 31.3668 42.2018 24.742 48.829ZM24.742 24.829C31.3668 18.2018 31.3668 7.45612 24.742 0.828979C18.1172 7.45612 18.1172 18.2018 24.742 24.829Z" fill="#79A9FF"/>
<path opacity="0.75" d="M7.74902 41.79C7.74902 32.4297 15.347 24.829 24.704 24.829C24.7414 34.1894 17.1435 41.79 7.74902 41.79ZM24.7415 24.829C34.0985 24.829 41.6964 17.2284 41.6964 7.86804C32.302 7.86804 24.7415 15.4312 24.7415 24.829Z" fill="#3A80FF"/>
</svg>
